# xmcd
#
# Track frame offsets: 
#        150
#        25498
#        50471
#        66046
#        86929
#        112651
#        131320
#        155530
#        178883
#        203576
#        220070
#        239169
#        253267
#        274748
#
# Disc length: 3938 seconds
#
# Revision: 1
# Processed by: cddbd v1.5.2PL0 Copyright (c) Steve Scherf et al.
# Submitted via: ExactAudioCopy v0.99pb3
#
DISCID=cc0f600e
DTITLE=Smoma - Casual Lounge
DYEAR=2006
DGENRE=Electronic
TTITLE0=Give Me The Night
TTITLE1=The Sweetest Taboo
TTITLE2=My Babe Just Cares For You
TTITLE3=Like A Chameleon
TTITLE4=Inner City Blues
TTITLE5=Change Your Mind
TTITLE6=Georgy Porgy
TTITLE7=Do It Again
TTITLE8=Why Can't We Live Together
TTITLE9=Summertime
TTITLE10=Sing It Back
TTITLE11=Ain't No Sunshine
TTITLE12=Give Me The Night [House Version]
TTITLE13=Change Your Mind [Cool Version]
EXTD=
EXTT0=
EXTT1=
EXTT2=
EXTT3=
EXTT4=
EXTT5=
EXTT6=
EXTT7=
EXTT8=
EXTT9=
EXTT10=
EXTT11=
EXTT12=
EXTT13=
PLAYORDER=
